<svg width="622" height="622" viewBox="0 0 622 622" fill="none" xmlns="http://www.w3.org/2000/svg">
<path d="M423.693 341.032C427.167 354.767 389.141 350.412 379.855 363.272C370.563 376.126 347.855 367.491 342.589 365.017C337.324 362.548 317.163 370.782 318.923 356.782C320.673 342.777 332.944 341.954 346.1 336.194C359.251 330.434 378.22 311.293 368.897 308.788C325.017 297.017 310.043 255.798 310.043 255.798C307.412 255.304 308.069 226.658 296.679 225.834C285.272 225.006 279.137 229.126 262.481 225.834C245.82 222.543 249.33 211.834 246.7 188.777C244.075 165.714 253.721 173.132 258.929 165.72C259.388 165.069 259.976 164.491 260.559 163.907C199.549 184.798 155.543 242.683 155.543 310.681C155.543 310.79 155.549 310.894 155.549 311.003C166.887 311.733 187.538 314.129 188.507 321.91C189.851 332.655 188.507 346.082 197.908 350.112C207.309 354.144 209.997 333.998 218.054 339.368C226.111 344.737 247.6 349.915 247.6 359.409C247.6 368.904 243.569 383.685 247.6 386.368C251.632 389.055 267.736 407.852 267.74 410.54C267.746 413.227 273.417 426.884 271.725 432.108C270.324 436.436 263.251 449.878 256.386 455.988C273.293 462.321 291.574 465.805 310.667 465.805C396.203 465.805 465.801 396.217 465.801 310.672C465.801 285.339 459.655 261.421 448.842 240.281C449.879 256.057 449.181 270.432 452.634 275.145C467.749 295.733 415.806 309.891 423.697 341.025L423.693 341.032Z" fill="black"/>
<path d="M310.667 0C139.093 0 0 139.093 0 310.667C0 482.24 139.093 621.347 310.667 621.347C482.24 621.347 621.333 482.24 621.333 310.667C621.333 139.093 482.24 0 310.667 0ZM310.672 498.027C207.365 498.027 123.312 413.98 123.312 310.667C123.312 207.353 207.364 123.307 310.672 123.307C413.98 123.307 498.032 207.353 498.032 310.667C498.032 413.98 413.98 498.027 310.672 498.027Z" fill="black"/>
</svg>
